:SAMPLES-PER-SECOND 30
:FRAME-RANGE 1-2643
:FULLY-SPECIFIED
:DEGREES
579
root  47.0457 35.5404 -48.2944 124.175 77.8814 125.437
RightUpLeg  -15.7012 4.2705 -0.427875
RightLeg  80.7399 -0.66198 -7.29745
RightFoot  -13.0001 -0.107082 -1.32269
RightToes  5.38607e-012 1.2921e-014 -6.02303e-014
Spine  4.1527 0.349841 -2.85342
Spine1  5.58251 0.714769 -4.54192
HEad  20.033 -13.2811 1.58603
LeftShoulder1  0.63969 0.531454 -16.583
LeftArm  20.0638 0.923318 -48.1908
LeftForeArm  25.0874 -13.361 -10.4834
LeftHand  -0.0590124 4.24127 3.99502
RightShoulder  1.85002 2.88554 23.7588
RightArm  -13.5566 -2.54415 52.7481
RightForeArm  64.6412 2.89548 10.3233
RightHand  0.368128 -7.111 -24.9737
LeftUpLeg  -30.6239 -6.34295 6.63403
LeftLeg  22.083 3.63075 1.96419
LeftFoot  -5.64076 0.986036 -18.9779
LeftToes  -4.79707e-012 -5.93756e-011 -7.55542e-012
580
root  49.3261 34.3972 -49.3476 109.57 78.3218 111.708
RightUpLeg  -22.5671 3.68037 -1.83839
RightLeg  89.6202 0.463534 -6.04017
RightFoot  -15.9591 -0.188732 -2.00461
RightToes  5.38607e-012 1.2921e-014 -6.02303e-014
Spine  7.84584 0.293624 -4.8706
Spine1  3.37435 0.195488 -3.67729
HEad  16.8654 -15.1816 2.22944
LeftShoulder1  0.725409 0.17309 -16.6913
LeftArm  23.5644 -0.506983 -46.505
LeftForeArm  21.9408 -14.7883 -9.80507
LeftHand  -0.0445627 4.7924 4.43117
RightShoulder  1.79379 2.61092 24.2126
RightArm  -16.1459 -2.85695 51.4574
RightForeArm  61.0394 1.49812 9.25364
RightHand  0.288734 -6.72619 -25.291
LeftUpLeg  -33.6663 -4.67497 4.96357
LeftLeg  35.4565 -1.25979 -0.57989
LeftFoot  -0.67666 1.45016 -15.4174
LeftToes  -4.79707e-012 -5.93756e-011 -7.55542e-012
581
root  51.5339 33.8387 -50.0398 94.3318 76.0977 97.9862
RightUpLeg  -29.0512 3.29121 -4.19295
RightLeg  91.3234 0.592146 -5.08465
RightFoot  -19.7641 -0.339958 -2.80112
RightToes  5.38607e-012 1.2921e-014 -6.02303e-014
Spine  10.0147 0.111372 -9.05376
Spine1  4.8096 -0.312554 -3.4701
HEad  12.1753 -16.3045 4.0023
LeftShoulder1  1.2371 -1.95629 -17.085
LeftArm  17.8026 -5.38065 -43.6931
LeftForeArm  26.4745 -11.5927 -11.5171
LeftHand  -0.0469742 4.78757 4.96551
RightShoulder  1.89876 2.88443 24.597
RightArm  -22.6406 -0.74794 52.7619
RightForeArm  59.2308 -2.94546 5.65569
RightHand  0.117245 -5.908 -26.7583
LeftUpLeg  -32.2055 0.0717503 1.57265
LeftLeg  43.2243 -2.15781 -1.74224
LeftFoot  -6.44554 0.647924 -14.1963
LeftToes  -4.79707e-012 -5.93756e-011 -7.55542e-012
582
root  53.8574 33.8133 -50.6287 79.5866 75.099 83.8746
RightUpLeg  -34.6217 2.06141 -3.42993
RightLeg  85.2342 -0.0805218 -7.38833
RightFoot  -21.7561 -0.415654 -2.94497
RightToes  5.38607e-012 1.2921e-014 -6.02303e-014
Spine  11.6122 -0.40156 -9.89068
Spine1  3.47105 -0.656645 -4.40902
HEad  12.8826 -16.9599 3.21708
LeftShoulder1  1.27181 -2.05561 -17.3156
LeftArm  12.2414 -9.26111 -42.5753
LeftForeArm  31.7822 -7.06431 -13.2086
LeftHand  -0.0465563 4.8072 5.0468
RightShoulder  1.93728 3.11199 24.0886
RightArm  -23.7338 -0.157987 53.6337
RightForeArm  58.2646 -5.9287 4.73077
RightHand  0.401899 -7.1637 -26.261
LeftUpLeg  -28.393 -0.0744992 2.92139
LeftLeg  43.741 0.717462 1.18038
LeftFoot  -8.90352 0.431587 -17.6692
LeftToes  -4.79707e-012 -5.93756e-011 -7.55542e-012
583
root  56.1989 34.1236 -51.0498 72.5058 74.7612 76.0683
RightUpLeg  -38.3386 -1.72876 -0.466274
RightLeg  73.0303 -3.08454 -12.2939
RightFoot  -22.5762 -0.335969 -1.86207
RightToes  5.38607e-012 1.2921e-014 -6.02303e-014
Spine  11.4236 -1.33501 -9.06241
Spine1  1.67764 -1.39533 -3.48451
HEad  14.5601 -19.0916 1.27665
LeftShoulder1  1.29116 -2.07384 -17.6187
LeftArm  11.0531 -10.4462 -42.0713
LeftForeArm  31.191 -6.84801 -13.1579
LeftHand  -0.0499524 4.64032 4.48897
RightShoulder  1.83698 2.88676 23.5294
RightArm  -22.1729 -2.75254 53.076
RightForeArm  58.3264 -3.45857 6.02634
RightHand  0.198117 -6.40865 -23.2813
LeftUpLeg  -24.3909 -1.72203 5.96667
LeftLeg  39.7716 3.22366 3.28749
LeftFoot  -8.25337 0.639965 -21.6886
LeftToes  -4.79707e-012 -5.93756e-011 -7.55542e-012
584
root  58.5123 34.5136 -51.4801 68.0728 74.0988 70.5034
RightUpLeg  -39.2495 -5.80384 1.60089
RightLeg  57.5408 -7.22905 -12.4808
RightFoot  -21.4856 -0.156307 -0.122573
RightToes  5.38607e-012 1.2921e-014 -6.02303e-014
Spine  11.4265 -2.09581 -6.40408
Spine1  -0.605099 -1.77078 -3.28425
HEad  14.203 -21.8161 -1.14342
LeftShoulder1  1.42508 -1.93619 -21.0458
LeftArm  16.7402 -10.5638 -38.1254
LeftForeArm  22.3707 -11.2376 -11.8022
LeftHand  -0.0850537 3.37644 4.02764
RightShoulder  2.01742 3.81686 22.1274
RightArm  -20.1475 -4.45293 51.6773
RightForeArm  60.0767 -2.74933 7.14
RightHand  0.205638 -6.4554 -23.1038
LeftUpLeg  -21.0357 -2.94168 7.91132
LeftLeg  36.1834 4.14384 3.64212
LeftFoot  -7.01285 0.956665 -23.8956
LeftToes  -4.79707e-012 -5.93756e-011 -7.55542e-012
